<?xml version="1.0" encoding="iso-8859-1"?>
<!-- Uploaded to: SVG Repo, www.svgrepo.com, Generator: SVG Repo Mixer Tools -->
<svg height="800px" width="800px" version="1.1" id="Layer_1" xmlns="http://www.w3.org/2000/svg" xmlns:xlink="http://www.w3.org/1999/xlink" 
	 viewBox="0 0 511.992 511.992" xml:space="preserve">
<!-- Esto es el tikect -->
<polygon style="fill:#ED5564;" points="298.9,234.841 91.321,85.33 141.163,16.129 348.712,165.656 "/>
<path style="fill:#434A54;" d="M295.433,166.687L157.069,67.002c-4.781-3.438-11.453-2.359-14.89,2.422
	c-3.438,4.766-2.359,11.438,2.422,14.875l0,0l138.363,99.669c0,0.016,0,0.016,0.031,0.016c4.75,3.438,11.438,2.359,14.874-2.422
	C301.307,176.781,300.213,170.124,295.433,166.687z"/>
<!-- Esto son los puntitos -->
<g>
	<path style="fill:#F4BE8E;" d="M192.037,192.217c0,5.875-4.766,10.656-10.656,10.656c-5.891,0-10.656-4.781-10.656-10.656
		c0-5.89,4.766-10.671,10.656-10.671S192.037,186.327,192.037,192.217z"/>
	<path style="fill:#F4BE8E;" d="M255.988,224.185c0,5.891-4.766,10.656-10.656,10.656c-5.891,0-10.656-4.766-10.656-10.656
		s4.766-10.656,10.656-10.656C251.223,213.529,255.988,218.294,255.988,224.185z"/>
	<path style="fill:#F4BE8E;" d="M362.586,224.185c0,5.891-4.78,10.656-10.655,10.656s-10.655-4.766-10.655-10.656
		s4.78-10.656,10.655-10.656S362.586,218.294,362.586,224.185z"/>
	<path style="fill:#F4BE8E;" d="M341.275,288.151c0,5.875-4.781,10.656-10.656,10.656c-5.906,0-10.656-4.781-10.656-10.656
		s4.75-10.656,10.656-10.656C336.494,277.495,341.275,282.276,341.275,288.151z"/>
	<path style="fill:#F4BE8E;" d="M362.586,117.595c0,5.891-4.78,10.656-10.655,10.656s-10.655-4.765-10.655-10.656
		c0-5.89,4.78-10.656,10.655-10.656S362.586,111.705,362.586,117.595z"/>
	<path style="fill:#F4BE8E;" d="M297.869,96.97c0,5.891-4.78,10.656-10.655,10.656c-5.906,0-10.655-4.766-10.655-10.656
		s4.749-10.656,10.655-10.656C293.089,86.314,297.869,91.08,297.869,96.97z"/>
</g>
<g>
	<path style="fill:#FFD2A6;" d="M416.272,121.001L375.71,242.31c0,0-0.125,134.838,20.125,141.588
		C416.054,390.68,633.016,193.467,416.272,121.001z"/>
	<path style="fill:#FFD2A6;" d="M264.441,62.518l-101.528,77.811c0,0-127.449,43.967-140.417,27.046
		C9.527,150.453,125.414-118.867,264.441,62.518z"/>
	<path style="fill:#FFD2A6;" d="M87.478,251.372c-210.056,90.058,22.421,268.741,42.014,260.334
		c19.593-8.405,4.531-141.12,8.39-142.776c3.844-1.625,89.576,100.778,109.169,92.372S297.525,161.328,87.478,251.372z"/>
</g>
<path style="fill:#F4BE8E;" d="M194.803,286.683c-1.094-2.594-3.094-4.5-5.453-5.531v-0.031
	c-1.531-0.688-37.983-16.452-87.606,4.781c-49.624,21.219-63.42,58.467-63.982,60.029h0.016c-0.875,2.469-0.875,5.219,0.219,7.781
	c2.312,5.406,8.578,7.938,13.984,5.625c2.844-1.219,4.875-3.531,5.843-6.219h0.016c0.109-0.312,11.125-30.03,52.28-47.623
	c40.64-17.375,69.404-5.375,70.607-4.875l-0.062-0.031l0,0c2.625,1.156,5.687,1.281,8.531,0.062
	C194.615,298.339,197.131,292.089,194.803,286.683z"/>
</svg>